<?xml version="1.0" encoding="UTF-8"?>
<svg id="Layer_2" xmlns="http://www.w3.org/2000/svg" viewBox="0 0 954.38 328.37">
  <defs>
    <style>
      .cls-1 {
        font-family: PrimarySchool, PrimarySchool;
        font-size: 167.44px;
      }

      .cls-2 {
        fill: #0066FF;
      }

      .cls-3 {
        fill: #0066FF;
      }
    </style>
  </defs>
  <g id="Layer_1-2" data-name="Layer_1">
    <g>
      <g>
        <path class="cls-3" d="M66.54,287.51l20.97,36.32c3.49,6.04,12.21,6.04,15.7,0l43.25-74.92,30.83-53.4c3.68-6.37-4.44-12.96-9.92-8.05l-99.03,88.76c-3.19,2.86-3.94,7.57-1.8,11.28Z"/>
        <path class="cls-2" d="M248.58,71.9l-36.71-63.59c-6.39-11.08-22.38-11.08-28.78,0l-36.71,63.59-51.1,88.51h60.38c6.16,0,11.81-3.4,14.69-8.84l24.88-47.01c.85-1.6,3.14-1.61,4-.01l25.38,47.14c2.9,5.38,8.52,8.74,14.63,8.74h46.62c6.15,0,9.99-6.66,6.92-11.98l-44.18-76.53Z"/>
        <path class="cls-3" d="M37.64,237.45L1.27,174.46c-3.61-6.25.9-14.05,8.11-14.05h85.9l-41.28,76.79c-3.47,6.46-12.7,6.6-16.37.25Z"/>
      </g>
      <text class="cls-1" transform="translate(345.1 156.07)"><tspan class="cls-2"><tspan x="0" y="0">ABRAR</tspan></tspan><tspan class="cls-3"><tspan x="0" y="130">STUDIO</tspan></tspan></text>
    </g>
  </g>
</svg>