<?xml version="1.0" encoding="UTF-8"?>
<svg id="Layer_2" xmlns="http://www.w3.org/2000/svg" viewBox="0 0 1231.34 266.79">
  <defs>
    <style>
      .cls-1 {
        fill: #06f;
      }
    </style>
  </defs>
  <g id="Layer_1-2" data-name="Layer_1">
    <g>
      <g id="Layer_2-2" data-name="Layer_2">
        <g id="Layer_1-2">
          <path class="cls-1" d="M52.62,226.48l22.83,39.54c.58,1.01,2.04,1.01,2.63,0l37.62-65.16,34.18-59.2c.86-1.49-1.04-3.04-2.33-1.89l-94.64,84.82c-.53.48-.66,1.27-.3,1.89Z"/>
          <path class="cls-1" d="M40.48,200.76l36.29-67.4H1.52c-1.17,0-1.9,1.26-1.31,2.28l37.62,65.16h0c.59,1.03,2.09,1.01,2.65-.04Z"/>
          <path class="cls-1" d="M193.51,65.92L155.89.76c-.58-1.01-2.04-1.01-2.63,0l-37.62,65.16-38.94,67.44h52.71c.56,0,1.08-.31,1.34-.81l22.28-42.1c.57-1.07,2.1-1.08,2.68,0l22.68,42.12c.26.49.78.8,1.34.8h50.09c1.17,0,1.9-1.26,1.31-2.28l-37.62-65.16Z"/>
        </g>
      </g>
      <g>
        <path class="cls-1" d="M339.65,174.29h-39.32l-6.3,18.61h-26.87l38.12-105.36h29.72l38.12,105.36h-27.17l-6.3-18.61ZM333.05,154.48l-13.06-38.57-12.91,38.57h25.97Z"/>
        <path class="cls-1" d="M420.7,111.55c4.5-2.4,9.66-3.6,15.46-3.6,6.9,0,13.16,1.75,18.76,5.25,5.6,3.5,10.03,8.51,13.28,15.01,3.25,6.51,4.88,14.06,4.88,22.66s-1.63,16.19-4.88,22.74c-3.25,6.55-7.68,11.61-13.28,15.16-5.6,3.55-11.86,5.33-18.76,5.33-5.91,0-11.06-1.18-15.46-3.53-4.4-2.35-7.86-5.48-10.36-9.38v11.71h-25.67v-111.07h25.67v39.17c2.4-3.9,5.85-7.05,10.36-9.46ZM441.64,135.8c-3.55-3.65-7.93-5.48-13.13-5.48s-9.43,1.85-12.98,5.55c-3.55,3.7-5.33,8.76-5.33,15.16s1.78,11.46,5.33,15.16c3.55,3.7,7.88,5.55,12.98,5.55s9.46-1.88,13.06-5.63c3.6-3.75,5.4-8.83,5.4-15.23s-1.78-11.43-5.33-15.08Z"/>
        <path class="cls-1" d="M523.51,112.23c4.5-2.65,9.5-3.98,15.01-3.98v27.17h-7.05c-6.4,0-11.21,1.38-14.41,4.13-3.2,2.75-4.8,7.58-4.8,14.48v38.87h-25.67v-83.75h25.67v13.96c3-4.6,6.75-8.23,11.26-10.88Z"/>
        <path class="cls-1" d="M550.6,128.22c3.25-6.5,7.68-11.51,13.28-15.01,5.6-3.5,11.86-5.25,18.76-5.25,5.9,0,11.08,1.2,15.53,3.6,4.45,2.4,7.88,5.55,10.28,9.46v-11.86h25.67v83.75h-25.67v-11.86c-2.5,3.9-5.98,7.05-10.43,9.46-4.45,2.4-9.63,3.6-15.53,3.6-6.81,0-13.01-1.78-18.61-5.33-5.6-3.55-10.03-8.6-13.28-15.16-3.25-6.55-4.88-14.13-4.88-22.74s1.63-16.16,4.88-22.66ZM603.14,135.87c-3.55-3.7-7.88-5.55-12.98-5.55s-9.43,1.83-12.98,5.48c-3.55,3.65-5.33,8.68-5.33,15.08s1.78,11.48,5.33,15.23c3.55,3.75,7.88,5.63,12.98,5.63s9.43-1.85,12.98-5.55c3.55-3.7,5.33-8.76,5.33-15.16s-1.78-11.46-5.33-15.16Z"/>
        <path class="cls-1" d="M689.66,112.23c4.5-2.65,9.5-3.98,15.01-3.98v27.17h-7.05c-6.4,0-11.21,1.38-14.41,4.13-3.2,2.75-4.8,7.58-4.8,14.48v38.87h-25.67v-83.75h25.67v13.96c3-4.6,6.75-8.23,11.26-10.88Z"/>
        <path class="cls-1" d="M766.21,190.2c-6.1-2.5-10.98-6.2-14.63-11.11-3.65-4.9-5.58-10.81-5.78-17.71h27.32c.4,3.9,1.75,6.88,4.05,8.93,2.3,2.05,5.3,3.08,9.01,3.08s6.8-.87,9.01-2.63c2.2-1.75,3.3-4.18,3.3-7.28,0-2.6-.88-4.75-2.63-6.45-1.75-1.7-3.9-3.1-6.46-4.2-2.55-1.1-6.18-2.35-10.88-3.75-6.81-2.1-12.36-4.2-16.66-6.3-4.3-2.1-8.01-5.2-11.11-9.3-3.1-4.1-4.65-9.46-4.65-16.06,0-9.8,3.55-17.49,10.66-23.04,7.1-5.55,16.36-8.33,27.77-8.33s20.96,2.78,28.07,8.33c7.1,5.55,10.9,13.28,11.41,23.19h-27.77c-.2-3.4-1.45-6.08-3.75-8.03-2.3-1.95-5.25-2.93-8.86-2.93-3.1,0-5.6.83-7.51,2.48-1.9,1.65-2.85,4.03-2.85,7.13,0,3.4,1.6,6.06,4.8,7.96,3.2,1.9,8.2,3.95,15.01,6.15,6.8,2.3,12.33,4.5,16.59,6.6,4.25,2.1,7.93,5.15,11.03,9.16,3.1,4,4.65,9.16,4.65,15.46s-1.53,11.46-4.58,16.36c-3.05,4.9-7.48,8.81-13.28,11.71-5.8,2.9-12.66,4.35-20.56,4.35s-14.61-1.25-20.71-3.75Z"/>
        <path class="cls-1" d="M887.78,171.14v21.76h-13.06c-9.31,0-16.56-2.27-21.76-6.83-5.2-4.55-7.8-11.98-7.8-22.29v-33.32h-10.21v-21.31h10.21v-20.41h25.67v20.41h16.81v21.31h-16.81v33.62c0,2.5.6,4.3,1.8,5.4,1.2,1.1,3.2,1.65,6,1.65h9.16Z"/>
        <path class="cls-1" d="M984.74,109.15v83.75h-25.67v-11.41c-2.6,3.7-6.13,6.68-10.58,8.93-4.45,2.25-9.38,3.38-14.78,3.38-6.4,0-12.06-1.43-16.96-4.28-4.9-2.85-8.7-6.98-11.41-12.38-2.7-5.4-4.05-11.76-4.05-19.06v-48.93h25.52v45.48c0,5.6,1.45,9.96,4.35,13.06,2.9,3.1,6.8,4.65,11.71,4.65s8.95-1.55,11.86-4.65c2.9-3.1,4.35-7.45,4.35-13.06v-45.48h25.67Z"/>
        <path class="cls-1" d="M1002.97,128.22c3.25-6.5,7.68-11.51,13.28-15.01,5.6-3.5,11.86-5.25,18.76-5.25,5.5,0,10.53,1.15,15.08,3.45,4.55,2.3,8.13,5.4,10.73,9.31v-38.87h25.67v111.07h-25.67v-12.01c-2.4,4-5.83,7.2-10.28,9.61-4.45,2.4-9.63,3.6-15.53,3.6-6.9,0-13.16-1.78-18.76-5.33-5.6-3.55-10.03-8.6-13.28-15.16-3.25-6.55-4.88-14.13-4.88-22.74s1.63-16.16,4.88-22.66ZM1055.51,135.87c-3.55-3.7-7.88-5.55-12.98-5.55s-9.43,1.83-12.98,5.48c-3.55,3.65-5.33,8.68-5.33,15.08s1.78,11.48,5.33,15.23c3.55,3.75,7.88,5.63,12.98,5.63s9.43-1.85,12.98-5.55c3.55-3.7,5.33-8.76,5.33-15.16s-1.78-11.46-5.33-15.16Z"/>
        <path class="cls-1" d="M1106.98,96.47c-2.85-2.65-4.28-5.93-4.28-9.83s1.43-7.33,4.28-9.98c2.85-2.65,6.53-3.98,11.03-3.98s8.03,1.33,10.88,3.98c2.85,2.65,4.28,5.98,4.28,9.98s-1.43,7.18-4.28,9.83c-2.85,2.65-6.48,3.98-10.88,3.98s-8.18-1.32-11.03-3.98ZM1130.77,109.15v83.75h-25.67v-83.75h25.67Z"/>
        <path class="cls-1" d="M1165.37,188.85c-6.55-3.5-11.71-8.5-15.46-15.01-3.75-6.5-5.63-14.11-5.63-22.81s1.9-16.18,5.7-22.74c3.8-6.55,9.01-11.58,15.61-15.08,6.6-3.5,14.01-5.25,22.21-5.25s15.61,1.75,22.21,5.25c6.6,3.5,11.81,8.53,15.61,15.08,3.8,6.56,5.7,14.13,5.7,22.74s-1.93,16.19-5.78,22.74c-3.85,6.56-9.11,11.58-15.76,15.09-6.66,3.5-14.09,5.25-22.29,5.25s-15.59-1.75-22.14-5.25ZM1200.04,166.49c3.45-3.6,5.18-8.75,5.18-15.46s-1.68-11.86-5.03-15.46c-3.35-3.6-7.48-5.4-12.38-5.4s-9.16,1.78-12.46,5.33c-3.3,3.55-4.95,8.73-4.95,15.54s1.63,11.86,4.88,15.46c3.25,3.6,7.33,5.4,12.23,5.4s9.08-1.8,12.53-5.4Z"/>
      </g>
    </g>
  </g>
</svg>